<svg width="400" height="400" viewBox="0 0 400 400" fill="none" xmlns="http://www.w3.org/2000/svg">
<path d="M199.986 400L273.676 153.9H126.403L199.986 400Z" fill="#E24329"/>
<path d="M23.188 153.901L0.747619 228.669C-1.28304 235.459 0.909933 242.953 6.26974 247.185L199.987 400L23.188 153.901Z" fill="#FCA326"/>
<path d="M23.188 153.901H126.403L81.9823 5.68711C79.7088 -1.8957 69.8008 -1.8957 67.4455 5.68711L23.188 153.901Z" fill="#E24329"/>
<path d="M376.893 153.901L399.252 228.669C401.283 235.459 399.09 242.953 393.73 247.185L199.986 400L376.893 153.901Z" fill="#FCA326"/>
<path d="M376.892 153.901H273.677L318.016 5.68711C320.29 -1.8957 330.198 -1.8957 332.553 5.68711L376.892 153.901Z" fill="#E24329"/>
<path d="M199.986 400L273.676 153.901H376.893L199.986 400Z" fill="#FC6D26"/>
<path d="M199.986 400L23.188 153.901H126.403L199.986 400Z" fill="#FC6D26"/>
</svg>
